<svg width="7" height="15" viewBox="0 0 7 15" fill="none" xmlns="http://www.w3.org/2000/svg">
<path d="M6.76999 1.25C6.77 0.978576 6.68165 0.714527 6.51831 0.497753C6.35497 0.28098 6.1255 0.123263 5.8646 0.0484357C5.60369 -0.0263914 5.32552 -0.0142627 5.07212 0.0829897C4.81871 0.180242 4.60385 0.357333 4.45999 0.587501L1.10124 3.94625C0.981857 4.06156 0.886629 4.19949 0.821118 4.352C0.755607 4.5045 0.721124 4.66852 0.719682 4.8345C0.71824 5.00047 0.749867 5.16507 0.812718 5.31869C0.875569 5.47231 0.968385 5.61188 1.08575 5.72924C1.20312 5.84661 1.34268 5.93943 1.4963 6.00228C1.64992 6.06513 1.81452 6.09676 1.9805 6.09531C2.14647 6.09387 2.3105 6.05939 2.463 5.99388C2.61551 5.92837 2.75344 5.83314 2.86874 5.71375L4.26999 4.31375V13.75C4.26999 14.0815 4.40169 14.3995 4.63611 14.6339C4.87053 14.8683 5.18847 15 5.51999 15C5.85151 15 6.16946 14.8683 6.40388 14.6339C6.6383 14.3995 6.76999 14.0815 6.76999 13.75V1.3125V1.25Z" fill="white"/>
</svg>
