<svg width="7" height="15" viewBox="0 0 7 15" fill="none" xmlns="http://www.w3.org/2000/svg">
<path d="M0.22998 13.75C0.229979 14.0214 0.318325 14.2855 0.481667 14.5022C0.645009 14.719 0.87447 14.8767 1.13538 14.9516C1.39628 15.0264 1.67446 15.0143 1.92786 14.917C2.18126 14.8198 2.39613 14.6427 2.53998 14.4125L5.89998 11.0537C6.01604 10.9376 6.10808 10.7998 6.17086 10.648C6.23363 10.4963 6.26592 10.3337 6.26586 10.1696C6.2658 10.0054 6.2334 9.8428 6.17052 9.69114C6.10763 9.53947 6.01549 9.40168 5.89936 9.28562C5.78322 9.16957 5.64536 9.07752 5.49365 9.01475C5.34194 8.95197 5.17935 8.91969 5.01516 8.91975C4.85098 8.9198 4.68841 8.9522 4.53675 9.01509C4.38508 9.07797 4.24729 9.17011 4.13123 9.28625L2.73123 10.6862V1.25C2.73123 0.918479 2.59953 0.600537 2.36511 0.366117C2.13069 0.131696 1.81275 0 1.48123 0C1.14971 0 0.831767 0.131696 0.597347 0.366117C0.362926 0.600537 0.23123 0.918479 0.23123 1.25V13.6875V13.75H0.22998Z" fill="white"/>
</svg>
